<svg xmlns="http://www.w3.org/2000/svg" viewBox="0 0 24 24" width="24" height="24">
  <path class="background" d="M12 0.297c-6.63 0-12 5.373-12 12 0 5.303 3.438 9.8 8.205 11.387 0.6 0.113 0.82-0.258 0.82-0.577 0-0.285-0.01-1.04-0.015-2.04-3.338 0.724-4.042-1.61-4.042-1.61-0.546-1.387-1.333-1.757-1.333-1.757-1.09-0.745 0.083-0.729 0.083-0.729 1.205 0.084 1.84 1.236 1.84 1.236 1.07 1.835 2.807 1.304 3.492 0.997 0.108-0.775 0.418-1.305 0.76-1.605-2.665-0.305-5.466-1.334-5.466-5.93 0-1.31 0.468-2.38 1.236-3.22-0.124-0.303-0.535-1.524 0.117-3.176 0 0 1.008-0.322 3.3 1.23 0.957-0.266 1.983-0.399 3.003-0.404 1.02 0.005 2.047 0.138 3.006 0.404 2.29-1.552 3.295-1.23 3.295-1.23 0.653 1.653 0.243 2.874 0.12 3.176 0.77 0.84 1.234 1.91 1.234 3.22 0 4.61-2.804 5.625-5.475 5.922 0.43 0.37 0.823 1.102 0.823 2.222 0 1.606-0.015 2.896-0.015 3.286 0 0.322 0.216 0.694 0.825 0.576 4.765-1.587 8.2-6.084 8.2-11.386 0-6.627-5.373-12-12-12z" fill="#ffffff"/>
  <path class="icon" d="M12 0.297c-6.63 0-12 5.373-12 12 0 5.303 3.438 9.8 8.205 11.387 0.6 0.113 0.82-0.258 0.82-0.577 0-0.285-0.01-1.04-0.015-2.04-3.338 0.724-4.042-1.61-4.042-1.61-0.546-1.387-1.333-1.757-1.333-1.757-1.09-0.745 0.083-0.729 0.083-0.729 1.205 0.084 1.84 1.236 1.84 1.236 1.07 1.835 2.807 1.304 3.492 0.997 0.108-0.775 0.418-1.305 0.76-1.605-2.665-0.305-5.466-1.334-5.466-5.93 0-1.31 0.468-2.38 1.236-3.22-0.124-0.303-0.535-1.524 0.117-3.176 0 0 1.008-0.322 3.3 1.23 0.957-0.266 1.983-0.399 3.003-0.404 1.02 0.005 2.047 0.138 3.006 0.404 2.29-1.552 3.295-1.23 3.295-1.23 0.653 1.653 0.243 2.874 0.12 3.176 0.77 0.84 1.234 1.91 1.234 3.22 0 4.61-2.804 5.625-5.475 5.922 0.43 0.37 0.823 1.102 0.823 2.222 0 1.606-0.015 2.896-0.015 3.286 0 0.322 0.216 0.694 0.825 0.576 4.765-1.587 8.2-6.084 8.2-11.386 0-6.627-5.373-12-12-12z" fill="#181818"/>
</svg>
