<svg xmlns="http://www.w3.org/2000/svg" viewBox="0 0 24 24" width="24" height="24">
  <path class="background" d="M4.98 3.5C4.98 4.88 3.88 6 2.5 6S0 4.88 0 3.5 1.12 1 2.5 1s2.48 1.12 2.48 2.5zM0 8.98h5V24H0V8.98zM7.5 8.98h4.7v2.06h.07c.65-1.23 2.25-2.55 4.63-2.55 4.95 0 5.9 3.26 5.9 7.5V24h-5v-6.7c0-1.6-.03-3.66-2.24-3.66-2.24 0-2.6 1.76-2.6 3.53V24h-5V8.98z" fill="#181818"/>
  <path class="icon" d="M4.98 3.5C4.98 4.88 3.88 6 2.5 6S0 4.88 0 3.5 1.12 1 2.5 1s2.48 1.12 2.48 2.5zM0 8.98h5V24H0V8.98zM7.5 8.98h4.7v2.06h.07c.65-1.23 2.25-2.55 4.63-2.55 4.95 0 5.9 3.26 5.9 7.5V24h-5v-6.7c0-1.6-.03-3.66-2.24-3.66-2.24 0-2.6 1.76-2.6 3.53V24h-5V8.98z" fill="#0077b5"/>
</svg>
